<?xml version="1.0" standalone="no"?>
<!DOCTYPE svg PUBLIC "-//W3C//DTD SVG 20010904//EN"
 "http://www.w3.org/TR/2001/REC-SVG-20010904/DTD/svg10.dtd">
<svg version="1.0" xmlns="http://www.w3.org/2000/svg"
 width="200.000000pt" height="200.000000pt" viewBox="0 0 200.000000 200.000000"
 preserveAspectRatio="xMidYMid meet">

<g transform="translate(0.000000,200.000000) scale(0.100000,-0.100000)"
fill="#000000" stroke="none">
<path d="M550 1880 c-15 -15 -20 -33 -20 -70 l0 -50 -50 0 c-46 0 -53 -3 -68
-29 -15 -28 -20 -29 -103 -33 -74 -3 -93 -8 -129 -32 -26 -17 -49 -43 -61 -69
-18 -40 -19 -75 -19 -697 0 -614 2 -657 19 -695 22 -48 44 -69 94 -90 55 -23
999 -23 1054 0 50 21 72 42 94 90 17 38 19 81 19 694 0 647 0 655 -21 699 -34
69 -83 95 -188 100 -83 4 -88 5 -103 33 -15 26 -22 29 -68 29 l-50 0 0 50 c0
37 -5 55 -20 70 -18 18 -33 20 -190 20 -157 0 -172 -2 -190 -20z m280 -154 c0
-67 20 -86 92 -86 27 0 48 -3 48 -7 0 -5 3 -18 6 -30 l6 -23 -241 0 c-254 0
-252 0 -235 44 4 12 20 16 55 16 67 0 89 23 89 90 l0 50 90 0 90 0 0 -54z
m-466 -186 c-5 -31 -3 -45 11 -60 17 -19 32 -20 366 -20 l349 0 15 24 c11 17
14 35 9 60 l-6 36 56 0 c43 0 61 -5 76 -20 20 -20 20 -33 20 -660 0 -627 0
-640 -20 -660 -19 -19 -33 -20 -500 -20 -467 0 -481 1 -500 20 -20 20 -20 33
-20 660 0 627 0 640 20 660 15 15 33 20 75 20 l55 0 -6 -40z"/>
<path d="M370 1255 c-31 -37 23 -78 77 -59 56 19 36 74 -27 74 -21 0 -43 -7
-50 -15z"/>
<path d="M572 1258 c-18 -18 -14 -46 7 -58 12 -6 114 -10 261 -10 147 0 249 4
261 10 21 12 25 40 7 58 -17 17 -519 17 -536 0z"/>
<path d="M372 998 c-33 -33 -2 -71 54 -66 43 4 65 28 48 56 -13 21 -84 28
-102 10z"/>
<path d="M572 998 c-16 -16 -15 -43 2 -57 9 -8 89 -11 271 -9 233 3 259 5 269
21 8 12 8 22 0 35 -10 15 -36 17 -270 20 -194 2 -263 -1 -272 -10z"/>
<path d="M378 739 c-21 -12 -23 -40 -6 -57 7 -7 28 -12 48 -12 39 0 60 14 60
42 0 32 -64 50 -102 27z"/>
<path d="M578 739 c-21 -12 -23 -40 -6 -57 17 -17 519 -17 536 0 18 18 14 46
-7 58 -26 13 -500 13 -523 -1z"/>
<path d="M364 453 c-5 -19 -2 -30 11 -40 25 -18 70 -17 89 3 35 34 11 64 -51
64 -38 0 -43 -3 -49 -27z"/>
<path d="M564 453 c-13 -50 5 -53 277 -53 212 0 250 2 263 16 9 8 16 21 16 28
0 33 -22 36 -287 36 l-263 0 -6 -27z"/>
<path d="M1675 1886 c-37 -17 -70 -52 -84 -89 -8 -19 -11 -266 -11 -761 l0
-733 63 -99 c89 -141 111 -140 201 9 l56 93 -2 746 c-3 736 -3 747 -24 774
-11 15 -32 37 -46 47 -34 25 -113 32 -153 13z m93 -118 c7 -7 12 -40 12 -80
l0 -68 -40 0 -40 0 0 68 c0 69 10 92 40 92 9 0 21 -5 28 -12z m12 -829 c0
-550 -1 -603 -17 -630 -10 -16 -20 -29 -23 -29 -3 0 -13 13 -23 29 -16 27 -17
80 -17 630 l0 601 40 0 40 0 0 -601z"/>
</g>
</svg>
